<?xml version="1.0" encoding="utf-8"?>
<!-- Generator: Adobe Illustrator 27.0.0, SVG Export Plug-In . SVG Version: 6.00 Build 0)  -->
<svg version="1.1" id="Layer_1" xmlns="http://www.w3.org/2000/svg" xmlns:xlink="http://www.w3.org/1999/xlink" x="0px" y="0px"
	 viewBox="0 0 64 64" style="enable-background:new 0 0 64 64;" xml:space="preserve">
<style type="text/css">
	.st0{fill-rule:evenodd;clip-rule:evenodd;fill:#AFAFAF;}
	.st1{fill:#0693E3;}
	.st2{fill:#161616;}
</style>
<g>
	<path class="st0" d="M32,61.3c3,0,5.5-0.5,5.5-1.1s-2.5-1-5.5-1c-3.1,0-5.5,0.5-5.5,1.1S28.9,61.3,32,61.3L32,61.3z"/>
	<g>
		<path class="st1" d="M32.9,2.7c-0.3,0-0.6,0-0.9,0c-0.3,0-0.6,0-0.9,0c-10.5,0.2-18.9,8.9-18.8,19.4C12.6,38.1,32,56.3,32,56.3
			S51.4,38,51.6,22C51.8,11.5,43.4,2.8,32.9,2.7z M47,24.9c-0.2,0.6-0.5,1.2-0.9,1.7c-0.2,0.3-0.5,0.5-0.8,0.7l0,0l0,0l0,0l0,0l0,0
			l0,0l0,0l0,0l0,0l0,0l0,0l0,0l0,0l0,0l0,0l0,0l0,0l0,0l0,0l0,0l0,0l0,0l0,0l0,0l0,0l0,0l0,0l0,0l0,0l0,0l0,0l0,0l0,0l0,0l0,0l0,0
			l0,0l0,0l0,0l0,0l0,0l0,0l0,0l0,0l0,0l0,0l0,0l0,0l0,0l0,0l0,0l0,0l0,0l0,0l0,0l0,0l0,0l0,0l0,0l0,0l0,0l0,0l0,0l0,0l0,0l0,0l0,0
			l0,0l0,0l0,0l0,0l0,0l0,0l0,0l0,0l0,0l0,0l0,0l0,0l0,0l0,0l0,0l0,0l0,0l0,0l0,0l0,0l0,0l0,0l0,0l0,0l0,0l0,0l0,0l0,0l0,0l0,0l0,0
			l0,0l0,0c-0.3,0.2-0.6,0.4-0.9,0.6c-0.2,0.1-0.3,0.1-0.5,0.2c-2.2,3.2-5.7,5.5-9.8,5.7c-0.5,0-0.9,0-1.3,0c-0.4,0-0.9,0-1.3,0
			c-2.8-0.2-5.3-1.2-7.4-2.9c-0.5,0.2-1.1,0.3-1.7,0.4c-0.7,0.1-1.5,0.1-2.3,0c-0.1,0-0.3,0-0.4,0c-0.5-0.1-1-0.2-1.3-0.3
			c-0.3-0.1-0.5-0.4-0.4-0.7l0.2-2.3c0-0.2,0.1-0.4,0.3-0.5l0,0l0,0l0,0l0,0l0,0l0,0l0,0l0,0l0,0l0,0l0,0l0,0l0,0l0,0l0,0l0,0l0,0
			l0,0l0,0l0,0l0,0l0,0l0,0l0,0l0,0l0,0l0,0l0,0l0,0l0,0l0,0l0,0l0,0l0,0l0,0l0,0l0,0l0,0l0,0l0,0l0,0l0,0l0,0l0,0l0,0l0,0l0,0l0,0
			l0,0l0,0l0,0l0,0l0,0l0,0l0,0l0,0l0,0l0,0l0,0l0,0l0,0l0,0l0,0l0,0l0,0l0,0l0,0l0,0l0,0l0,0l0,0l0,0l0,0l0,0l0,0l0,0l0,0l0,0l0,0
			l0,0l0,0l0,0l0,0l0,0l0,0l0,0l0,0l0,0l0,0l0,0l0,0l0,0l0,0l0,0l0,0l0,0l0,0l0,0l0,0l0,0l0,0l0,0l0,0l0,0l0,0l0,0l0,0l0,0l0,0l0,0
			l0,0l0,0l0,0l0,0l0,0l0,0l0,0l0,0l0,0l0,0l0,0l0,0l0,0l0,0l0,0l0,0l0,0l0,0l0,0l0,0l0,0l0,0l0,0l0,0l0,0l0,0l0,0l0,0l0,0l0,0l0,0
			l0,0l0,0l0,0l0,0l0,0l0,0l0,0l0,0l0,0l0,0l0,0l0,0l0,0l0,0l0,0l0,0l0,0l0,0l0,0l0,0l0,0l0,0l0,0l0,0l0,0l0,0l0,0l0,0l0,0l0,0l0,0
			l0,0l0,0l0,0l0,0l0,0l0,0l0,0l0,0l0,0l0,0l0,0l0,0l0,0l0,0l0,0l0,0l0,0l0,0l0,0l0,0l0,0l0,0l0,0l0,0l0,0l0,0l0,0l0,0l0,0l0,0
			c0.1-0.1,0.3-0.1,0.4-0.1H19c0.5,0.2,1,0.2,1.3,0.3l0,0h0.1c-0.4-0.7-0.7-1.4-0.9-2.1c-0.1,0-0.3-0.1-0.4-0.1
			c-0.5-0.2-1-0.5-1.4-0.8s-0.8-0.7-1-1.1c-0.1-0.2-0.2-0.5-0.3-0.7c-0.1-0.2-0.1-0.5-0.2-0.8c-0.1-0.6,0-1.3,0.2-1.9
			s0.5-1.1,0.9-1.6c0.2-0.2,0.5-0.5,0.7-0.7l0,0l0,0l0,0l0,0l0,0l0,0l0,0l0,0l0,0l0,0l0,0l0,0l0,0l0,0l0,0l0,0l0,0l0,0l0,0l0,0l0,0
			l0,0l0,0l0,0l0,0l0,0l0,0l0,0l0,0l0,0l0,0l0,0l0,0l0,0l0,0l0,0l0,0l0,0l0,0l0,0l0,0l0,0l0,0l0,0l0,0l0,0l0,0l0,0l0,0l0,0l0,0l0,0
			l0,0l0,0l0,0l0,0l0,0l0,0l0,0l0,0l0,0l0,0l0,0l0,0l0,0l0,0l0,0l0,0l0,0l0,0l0,0l0,0l0,0l0,0l0,0l0,0l0,0l0,0l0,0l0,0l0,0l0,0l0,0
			l0,0l0,0l0,0l0,0l0,0l0,0l0,0l0,0l0,0l0,0l0,0l0,0l0,0l0,0l0,0l0,0l0,0c0.3-0.2,0.6-0.4,0.9-0.5c0.1,0,0.1-0.1,0.2-0.1
			c1.8-4.5,6.2-7.8,11.3-8c0.4,0,0.7,0,1.1,0s0.7,0,1.1,0c3.8,0.1,7.1,1.9,9.4,4.7c0.3,0,0.6,0,0.9,0c0.2,0,0.3,0,0.5,0.1
			c0.3,0,0.7,0.1,1,0.2c0.3,0.1,0.5,0.4,0.5,0.7l0.1,1.8c0,0.2-0.1,0.4-0.3,0.5l0,0l0,0l0,0l0,0l0,0l0,0l0,0l0,0l0,0l0,0l0,0l0,0
			l0,0l0,0l0,0l0,0l0,0l0,0l0,0l0,0l0,0l0,0l0,0l0,0l0,0l0,0l0,0l0,0l0,0l0,0l0,0l0,0l0,0l0,0l0,0l0,0l0,0l0,0l0,0l0,0l0,0l0,0l0,0
			l0,0l0,0l0,0c0.3,0.9,0.5,1.8,0.6,2.8c0.2,0.1,0.4,0.3,0.5,0.4c0.8,0.7,1.2,1.5,1.3,2.6C47.2,23.7,47.1,24.3,47,24.9z"/>
		<path class="st2" d="M26.7,27.3C26.7,27.4,26.7,27.4,26.7,27.3c-0.2,0.6-0.4,1.1-0.8,1.5s-0.9,0.8-1.5,1.1
			c-0.7,0.3-1.4,0.5-2.3,0.6c-0.7,0.1-1.4,0.1-2.2,0c-0.6-0.1-1.1-0.2-1.6-0.3l0.2-2.3c0.5,0.2,1.1,0.3,1.4,0.3
			c0.7,0.1,1.3,0.1,1.9,0c0.3,0,0.7-0.1,0.9-0.2c0.3-0.1,0.5-0.2,0.7-0.4c0.3-0.3,0.5-0.7,0.4-1.2c0-0.2-0.1-0.4-0.2-0.6
			s-0.3-0.3-0.5-0.4s-0.5-0.2-0.8-0.3c-0.3-0.1-0.6-0.2-1.1-0.3c-0.6-0.1-1.1-0.3-1.6-0.5s-0.9-0.4-1.2-0.7
			c-0.4-0.3-0.6-0.6-0.9-0.9c-0.1-0.2-0.2-0.4-0.3-0.6c-0.1-0.2-0.1-0.4-0.2-0.7c-0.1-0.5,0-1.1,0.1-1.6c0.2-0.5,0.4-1,0.8-1.4
			s0.9-0.8,1.4-1c0.6-0.3,1.3-0.5,2-0.6s1.4-0.1,2-0.1c0.3,0,0.5,0.1,0.8,0.1C24,17,24,17.2,23.9,17.4c-0.1,0.5-0.2,1.1-0.3,1.6
			c-0.1,0-0.2,0-0.3,0c-0.6-0.1-1.2-0.1-1.7,0c-0.3,0-0.6,0.1-0.9,0.2c-0.2,0.1-0.4,0.2-0.6,0.4c-0.3,0.3-0.4,0.7-0.4,1.1
			c0,0.2,0.1,0.4,0.2,0.6s0.3,0.3,0.5,0.4c0.5,0.2,1.1,0.4,2,0.6l0,0l0,0c0.5,0.1,1,0.2,1.4,0.4c0.2,0.9,0.5,1.7,0.9,2.4
			C25.6,26,26.1,26.7,26.7,27.3z M46.4,23.2c-0.1-0.9-0.5-1.6-1.1-2.2c-0.6-0.5-1.5-0.9-2.8-1.2l0,0l0,0c-0.9-0.2-1.6-0.4-2-0.6
			c-0.2-0.1-0.4-0.3-0.5-0.4c-0.1-0.2-0.2-0.4-0.2-0.6c-0.1-0.4,0.1-0.8,0.4-1.1c0.2-0.2,0.4-0.3,0.6-0.4c0.3-0.1,0.5-0.2,0.9-0.2
			c0.6-0.1,1.2-0.1,1.7,0c0.4,0.1,0.8,0.1,1,0.2l0.3-2.3c-0.4-0.1-0.9-0.2-1.3-0.2c-0.6,0-1.3,0-2,0.1s-1.4,0.3-2,0.6s-1,0.6-1.4,1
			s-0.6,0.9-0.8,1.4s-0.2,1-0.1,1.6c0,0.2,0.1,0.5,0.2,0.7c0.1,0.2,0.2,0.4,0.3,0.6c0.2,0.3,0.5,0.7,0.9,0.9
			c0.3,0.3,0.8,0.5,1.2,0.7c0.5,0.2,1,0.3,1.6,0.5c0.4,0.1,0.8,0.2,1.1,0.3c0.3,0.1,0.6,0.2,0.8,0.3c0.2,0.1,0.4,0.3,0.5,0.4
			c0.1,0.2,0.2,0.4,0.2,0.6c0.1,0.5-0.1,0.9-0.4,1.2c-0.2,0.2-0.4,0.3-0.7,0.4s-0.6,0.2-0.9,0.2c-0.6,0.1-1.2,0.1-1.9,0
			c-0.4,0-0.9-0.1-1.4-0.3L38,27.6c0.4,0.1,1,0.3,1.6,0.3c0.7,0.1,1.5,0.1,2.2,0c0.9-0.1,1.6-0.3,2.3-0.6c0.6-0.3,1.1-0.7,1.5-1.1
			s0.6-0.9,0.8-1.4C46.5,24.2,46.5,23.7,46.4,23.2z M37.6,27.6l0.2-2.3c0-0.1,0-0.1,0-0.1c-0.3,0.2-0.7,0.3-1.2,0.5
			c-0.6,0.2-1.2,0.3-1.8,0.4c-0.9,0.1-1.7,0.1-2.5-0.1c-0.7-0.2-1.4-0.5-2-0.9s-1-1-1.4-1.7s-0.6-1.5-0.7-2.4
			c-0.1-1-0.1-1.8,0.1-2.6c0.2-0.8,0.5-1.4,1-2c0.4-0.6,1-1,1.7-1.3c0.6-0.3,1.4-0.6,2.2-0.7c0.7-0.1,1.3-0.1,1.9-0.1
			c0.5,0,0.9,0.1,1.4,0.2l0.4-3c-0.7-0.3-2.3-0.4-4.3-0.2c-1.3,0.2-2.5,0.6-3.6,1.1c-1.1,0.6-2,1.3-2.8,2.2s-1.3,2-1.6,3.1
			c-0.3,1.2-0.4,2.6-0.2,4c0.2,1.2,0.5,2.4,1,3.4s1.2,1.8,2.1,2.5s1.9,1.2,3.1,1.4c1.2,0.3,2.6,0.3,4,0.1c0.5-0.1,1-0.2,1.5-0.3
			c0.4-0.1,0.8-0.2,1.2-0.4c0.3-0.1,0.6-0.2,0.9-0.3c-0.2,0-0.3-0.1-0.5-0.1C37.7,28,37.6,27.8,37.6,27.6z"/>
	</g>
</g>
</svg>
